<svg width="219" height="47" viewBox="0 0 219 47" fill="none" xmlns="http://www.w3.org/2000/svg">
<path d="M1.5 46L24 1H219V46H1.5Z" fill="#000D82" stroke="#001AFF"/>
<path d="M56.0014 9.8335C63.8257 9.8335 70.1681 16.1759 70.1681 24.0002C70.1681 31.8244 63.8257 38.1668 56.0014 38.1668C53.4978 38.1709 51.0383 37.5083 48.8756 36.2472L41.8404 38.1668L43.7557 31.1288C42.4936 28.9654 41.8306 26.5048 41.8347 24.0002C41.8347 16.1759 48.1772 9.8335 56.0014 9.8335ZM51.1734 17.3418L50.8901 17.3532C50.7066 17.3643 50.5274 17.4125 50.3631 17.4948C50.2094 17.5819 50.0691 17.6906 49.9466 17.8178C49.7766 17.9779 49.6802 18.1167 49.5768 18.2513C49.0528 18.9326 48.7707 19.769 48.775 20.6285C48.7778 21.3227 48.9592 21.9984 49.2425 22.6302C49.8219 23.9081 50.7753 25.261 52.0333 26.5147C52.3365 26.8165 52.634 27.1197 52.9542 27.4016C54.5173 28.7778 56.38 29.7703 58.3942 30.3001L59.1988 30.4233C59.4609 30.4375 59.723 30.4177 59.9865 30.4049C60.3991 30.3836 60.8019 30.2719 61.1666 30.0777C61.3521 29.9821 61.5331 29.8781 61.7092 29.766C61.7092 29.766 61.7701 29.7263 61.8862 29.6385C62.0775 29.4968 62.1951 29.3962 62.3537 29.2305C62.4713 29.1087 62.5733 28.9656 62.6512 28.8027C62.7617 28.5717 62.8722 28.1312 62.9176 27.7642C62.9516 27.4837 62.9417 27.3307 62.9374 27.2358C62.9317 27.0842 62.8057 26.927 62.6682 26.8604L61.8437 26.4907C61.8437 26.4907 60.6112 25.9537 59.8576 25.6109C59.7787 25.5765 59.6942 25.5568 59.6082 25.5528C59.5113 25.5429 59.4134 25.5538 59.321 25.5848C59.2286 25.6158 59.144 25.6663 59.0727 25.7327C59.0657 25.7299 58.9707 25.8107 57.9465 27.0517C57.8877 27.1307 57.8067 27.1904 57.7139 27.2232C57.621 27.256 57.5205 27.2604 57.4252 27.2358C57.3329 27.2111 57.2424 27.1798 57.1546 27.1423C56.9789 27.0687 56.918 27.0403 56.7976 26.9893C55.9845 26.6345 55.2317 26.1551 54.5663 25.5684C54.3878 25.4126 54.2221 25.2426 54.0521 25.0782C53.4947 24.5445 53.009 23.9407 52.6071 23.2819L52.5235 23.1473C52.4635 23.0569 52.4149 22.9593 52.379 22.8569C52.3252 22.6487 52.4654 22.4815 52.4654 22.4815C52.4654 22.4815 52.8097 22.1047 52.9697 21.9007C53.1256 21.7023 53.2573 21.5097 53.3423 21.3722C53.5095 21.1031 53.5619 20.8268 53.4741 20.6129C53.0774 19.6439 52.6666 18.6792 52.2444 17.7215C52.1608 17.5317 51.9129 17.3957 51.6877 17.3687C51.6112 17.3602 51.5347 17.3517 51.4582 17.3461C51.2679 17.3366 51.0773 17.3385 50.8872 17.3517L51.1734 17.3418Z" fill="white"/>
<path d="M135.218 33.9664C135.04 34.7641 134.598 35.4786 133.965 35.9951C133.273 36.6968 132.449 37.254 131.54 37.6343C130.631 38.0147 129.655 38.2106 128.67 38.2108H128.209C126.141 38.0995 124.115 37.576 122.252 36.6709H122.238C121.806 36.4697 121.36 36.2685 120.928 36.0234C118.753 34.8018 116.758 33.2858 114.999 31.5184C112.717 29.3757 110.845 26.8352 109.474 24.0215C108.745 22.4795 108.258 20.8343 108.032 19.1439C107.696 17.3745 107.897 15.5453 108.608 13.8909C109.057 13.1445 109.604 12.4621 110.235 11.8622C110.518 11.5406 110.866 11.2811 111.254 11.1002C111.643 10.9193 112.065 10.8209 112.494 10.811C112.96 10.8633 113.411 11.0073 113.821 11.2346C114.232 11.4619 114.593 11.7681 114.884 12.1356C115.532 12.8397 116.322 13.5735 116.971 14.2507L117.863 15.129C118.388 15.5937 118.712 16.2425 118.77 16.9424C118.77 17.5841 118.533 18.2032 118.107 18.6835C117.831 19.0191 117.537 19.3406 117.229 19.6468L116.941 19.9485C116.774 20.1044 116.646 20.297 116.567 20.511C116.496 20.7192 116.468 20.9388 116.482 21.1584C116.71 21.769 117.069 22.3243 117.53 22.7847C118.252 23.7622 118.971 24.6122 119.705 25.533C121.032 27.074 122.608 28.3825 124.366 29.4048C124.546 29.5365 124.753 29.6244 124.972 29.6626C125.162 29.6768 125.355 29.6485 125.533 29.5776C126.036 29.2815 126.482 28.9019 126.856 28.4542C127.36 27.8387 128.082 27.4418 128.871 27.3464C129.631 27.3571 130.355 27.6677 130.887 28.2105C131.174 28.4542 131.49 28.7857 131.793 29.103L132.224 29.5479L132.67 29.98L133.434 30.7563C133.889 31.16 134.317 31.5921 134.715 32.0525C135.114 32.605 135.294 33.2893 135.218 33.9664ZM130.052 24.1079C129.767 24.1042 129.495 23.9893 129.293 23.7876C129.091 23.586 128.977 23.3135 128.973 23.0284C128.974 22.2135 128.815 21.4063 128.504 20.6531C128.193 19.9 127.736 19.2157 127.16 18.6394C126.583 18.0632 125.899 17.6064 125.146 17.2953C124.393 16.9841 123.586 16.8247 122.771 16.8262C122.484 16.8262 122.21 16.7125 122.007 16.51C121.805 16.3076 121.691 16.033 121.691 15.7467C121.691 15.4604 121.805 15.1858 122.007 14.9834C122.21 14.7809 122.484 14.6672 122.771 14.6672C123.869 14.6655 124.957 14.8806 125.972 15.3002C126.988 15.7198 127.91 16.3356 128.687 17.1124C129.463 17.8891 130.079 18.8115 130.499 19.8267C130.918 20.8419 131.134 21.9299 131.132 23.0284C131.132 23.1701 131.104 23.3105 131.05 23.4415C130.995 23.5724 130.916 23.6914 130.816 23.7917C130.715 23.8919 130.596 23.9714 130.465 24.0257C130.334 24.0799 130.194 24.1079 130.052 24.1079Z" fill="white"/>
<path d="M135.046 23.6032C134.761 23.5995 134.489 23.4848 134.287 23.2835C134.086 23.0821 133.971 22.81 133.967 22.5251C133.969 21.1366 133.697 19.7614 133.167 18.478C132.638 17.1945 131.86 16.0282 130.879 15.0457C129.898 14.0632 128.733 13.2837 127.45 12.752C126.167 12.2203 124.792 11.9467 123.404 11.9469C123.259 11.9521 123.115 11.9281 122.979 11.8763C122.844 11.8244 122.72 11.7458 122.616 11.6451C122.511 11.5444 122.428 11.4237 122.371 11.2902C122.315 11.1567 122.285 11.0131 122.285 10.8681C122.285 10.723 122.315 10.5795 122.371 10.446C122.428 10.3124 122.511 10.1917 122.616 10.0911C122.72 9.99036 122.844 9.91174 122.979 9.85989C123.115 9.80804 123.259 9.78403 123.404 9.78928C125.076 9.78928 126.731 10.1188 128.276 10.759C129.82 11.3992 131.223 12.3376 132.405 13.5204C133.586 14.7032 134.523 16.1073 135.161 17.6524C135.8 19.1975 136.128 20.8533 136.126 22.5251C136.126 22.6669 136.098 22.8073 136.043 22.9382C135.989 23.0692 135.91 23.1882 135.809 23.2884C135.709 23.3887 135.59 23.4682 135.459 23.5224C135.328 23.5767 135.188 23.6032 135.046 23.6032Z" fill="white"/>
<path d="M202.167 24.0002C202.167 16.1802 195.82 9.8335 188 9.8335C180.18 9.8335 173.833 16.1802 173.833 24.0002C173.833 30.8568 178.707 36.566 185.167 37.8835V28.2502H182.333V24.0002H185.167V20.4585C185.167 17.7243 187.391 15.5002 190.125 15.5002H193.667V19.7502H190.833C190.054 19.7502 189.417 20.3877 189.417 21.1668V24.0002H193.667V28.2502H189.417V38.096C196.571 37.3877 202.167 31.3527 202.167 24.0002Z" fill="white"/>
</svg>
