<svg width="17" height="19" viewBox="0 0 17 19" fill="none" xmlns="http://www.w3.org/2000/svg">
<path fill-rule="evenodd" clip-rule="evenodd" d="M5.56024 0.239425C6.42424 0.195925 6.69998 0.185425 8.8998 0.185425C11.0996 0.185425 11.3754 0.195925 12.2394 0.239425C13.5563 0.306175 14.7122 0.664675 15.6404 1.69592C16.5688 2.72755 16.8911 4.0123 16.9512 5.4748C16.9904 6.4348 16.9998 6.74117 16.9998 9.18542C16.9998 11.6297 16.9904 11.936 16.9512 12.896C16.8911 14.3593 16.5685 15.6437 15.6404 16.6749C14.7119 17.7066 13.5553 18.0647 12.2394 18.1314C11.3754 18.1749 11.0996 18.1854 8.8998 18.1854C6.69998 18.1854 6.42424 18.1749 5.56024 18.1314C4.24332 18.0647 3.08738 17.7062 2.15925 16.6749C1.23079 15.6433 0.90848 14.3585 0.848405 12.896C0.809255 11.936 0.799805 11.6297 0.799805 9.18542C0.799805 6.74117 0.809255 6.4348 0.848405 5.4748C0.90848 4.01155 1.23113 2.72717 2.15925 1.69592C3.08772 0.6643 4.24399 0.306175 5.56024 0.239425ZM12.1729 1.85943C11.3187 1.81593 11.0625 1.80693 8.8998 1.80693C6.7371 1.80693 6.48094 1.81631 5.62673 1.85943C4.70502 1.90631 3.84945 2.11143 3.19133 2.84268C2.53321 3.57393 2.34859 4.52455 2.30641 5.54868C2.26726 6.4978 2.25916 6.78243 2.25916 9.18542C2.25916 11.5884 2.26759 11.873 2.30641 12.8222C2.34859 13.8463 2.53321 14.7969 3.19133 15.5282C3.84945 16.2594 4.70502 16.4645 5.62673 16.5114C6.4806 16.5549 6.73677 16.5639 8.8998 16.5639C11.0628 16.5639 11.319 16.5545 12.1729 16.5114C13.0946 16.4645 13.9502 16.2594 14.6083 15.5282C15.2664 14.7969 15.451 13.8463 15.4932 12.8222C15.5324 11.873 15.5405 11.5884 15.5405 9.18542C15.5405 6.78243 15.532 6.4978 15.4932 5.54868C15.451 4.52455 15.2664 3.57393 14.6083 2.84268C13.9502 2.11143 13.0946 1.90631 12.1729 1.85943Z" fill="#7D818D"/>
</svg>
