<svg width="17" height="19" viewBox="0 0 17 19" fill="none" xmlns="http://www.w3.org/2000/svg">
<path fill-rule="evenodd" clip-rule="evenodd" d="M1.2751 0.185425H16.1251C16.4963 0.185425 16.8001 0.522925 16.8001 0.935425V17.4354C16.8001 17.8479 16.4963 18.1854 16.1251 18.1854H1.2751C0.903848 18.1854 0.600098 17.8479 0.600098 17.4354V0.935425C0.600098 0.522925 0.903848 0.185425 1.2751 0.185425ZM2.99635 15.5229H5.39259V6.93542H2.99635V15.5229ZM4.21134 5.77292C3.43509 5.77292 2.82759 5.09792 2.82759 4.23542C2.82759 3.37292 3.43509 2.69792 4.21134 2.69792C4.98759 2.69792 5.59509 3.37292 5.59509 4.23542C5.59509 5.06042 4.98759 5.77292 4.21134 5.77292ZM12.0076 15.5229H14.3701V10.7979C14.3701 8.47292 13.9313 6.71042 11.5013 6.71042C10.3538 6.71042 9.54385 7.42292 9.2401 8.09792H9.20635V6.93542H6.91135V15.5229H9.3076V11.2854C9.3076 10.1604 9.5101 9.07292 10.7588 9.07292C12.0076 9.07292 12.0076 10.3479 12.0076 11.3604V15.5229Z" fill="#7D818D"/>
</svg>
