<svg width="15" height="14" viewBox="0 0 15 14" fill="none" xmlns="http://www.w3.org/2000/svg">
<path d="M14.507 1.2222V10.6108C14.507 10.8023 14.4251 10.986 14.2791 11.1215C14.1332 11.2569 13.9353 11.333 13.7289 11.333C13.5225 11.333 13.3246 11.2569 13.1787 11.1215C13.0327 10.986 12.9508 10.8023 12.9508 10.6108V2.96541L1.82912 13.2884C1.6831 13.4239 1.48507 13.5 1.27858 13.5C1.07209 13.5 0.874052 13.4239 0.72804 13.2884C0.582028 13.1528 0.5 12.969 0.5 12.7774C0.5 12.5858 0.582028 12.402 0.72804 12.2664L11.8506 1.9444H3.61301C3.40664 1.9444 3.20871 1.86831 3.06278 1.73287C2.91685 1.59743 2.83487 1.41374 2.83487 1.2222C2.83487 1.03066 2.91685 0.846966 3.06278 0.711528C3.20871 0.576089 3.40664 0.5 3.61301 0.5H13.7289C13.9353 0.5 14.1332 0.576089 14.2791 0.711528C14.4251 0.846966 14.507 1.03066 14.507 1.2222Z" fill="#FF006B"/>
</svg>
