<svg width="14" height="14" viewBox="0 0 14 14" fill="none" xmlns="http://www.w3.org/2000/svg">
<path d="M14.007 1.2222V10.6108C14.007 10.8023 13.9251 10.986 13.7791 11.1215C13.6332 11.2569 13.4353 11.333 13.2289 11.333C13.0225 11.333 12.8246 11.2569 12.6787 11.1215C12.5327 10.986 12.4508 10.8023 12.4508 10.6108V2.96541L1.32912 13.2884C1.1831 13.4239 0.985069 13.5 0.778578 13.5C0.572086 13.5 0.374052 13.4239 0.22804 13.2884C0.0820284 13.1528 0 12.969 0 12.7774C0 12.5858 0.0820284 12.402 0.22804 12.2664L11.3506 1.9444H3.11301C2.90664 1.9444 2.70871 1.86831 2.56278 1.73287C2.41685 1.59743 2.33487 1.41374 2.33487 1.2222C2.33487 1.03066 2.41685 0.846966 2.56278 0.711528C2.70871 0.576089 2.90664 0.5 3.11301 0.5H13.2289C13.4353 0.5 13.6332 0.576089 13.7791 0.711528C13.9251 0.846966 14.007 1.03066 14.007 1.2222Z" fill="#FF006B"/>
</svg>
