<svg width="219" height="47" viewBox="0 0 219 47" fill="none" xmlns="http://www.w3.org/2000/svg">
<path d="M1.5 46L24 1H219V46H1.5Z" fill="#000D82" stroke="#001AFF"/>
<path d="M56.0016 9.8335C63.8259 9.8335 70.1683 16.1759 70.1683 24.0002C70.1683 31.8244 63.8259 38.1668 56.0016 38.1668C53.4981 38.1709 51.0386 37.5083 48.8758 36.2472L41.8406 38.1668L43.756 31.1288C42.4939 28.9654 41.8308 26.5048 41.835 24.0002C41.835 16.1759 48.1774 9.8335 56.0016 9.8335ZM51.1736 17.3418L50.8903 17.3532C50.7069 17.3643 50.5276 17.4125 50.3633 17.4948C50.2096 17.5819 50.0694 17.6906 49.9468 17.8178C49.7768 17.9779 49.6805 18.1167 49.5771 18.2513C49.0531 18.9326 48.7709 19.769 48.7752 20.6285C48.7781 21.3227 48.9594 21.9984 49.2427 22.6302C49.8221 23.9081 50.7756 25.261 52.0336 26.5147C52.3367 26.8165 52.6342 27.1197 52.9544 27.4016C54.5175 28.7778 56.3803 29.7703 58.3944 30.3001L59.1991 30.4233C59.4611 30.4375 59.7232 30.4177 59.9867 30.4049C60.3993 30.3836 60.8022 30.2719 61.1668 30.0777C61.3523 29.9821 61.5334 29.8781 61.7094 29.766C61.7094 29.766 61.7703 29.7263 61.8865 29.6385C62.0777 29.4968 62.1953 29.3962 62.354 29.2305C62.4716 29.1087 62.5736 28.9656 62.6515 28.8027C62.762 28.5717 62.8725 28.1312 62.9178 27.7642C62.9518 27.4837 62.9419 27.3307 62.9376 27.2358C62.932 27.0842 62.8059 26.927 62.6685 26.8604L61.844 26.4907C61.844 26.4907 60.6115 25.9537 59.8578 25.6109C59.779 25.5765 59.6944 25.5568 59.6085 25.5528C59.5116 25.5429 59.4136 25.5538 59.3213 25.5848C59.2289 25.6158 59.1442 25.6663 59.073 25.7327C59.0659 25.7299 58.971 25.8107 57.9467 27.0517C57.8879 27.1307 57.807 27.1904 57.7141 27.2232C57.6213 27.256 57.5208 27.2604 57.4254 27.2358C57.3331 27.2111 57.2427 27.1798 57.1548 27.1423C56.9791 27.0687 56.9182 27.0403 56.7978 26.9893C55.9847 26.6345 55.232 26.1551 54.5666 25.5684C54.3881 25.4126 54.2223 25.2426 54.0523 25.0782C53.495 24.5445 53.0093 23.9407 52.6073 23.2819L52.5237 23.1473C52.4637 23.0569 52.4152 22.9593 52.3792 22.8569C52.3254 22.6487 52.4656 22.4815 52.4656 22.4815C52.4656 22.4815 52.8099 22.1047 52.97 21.9007C53.1258 21.7023 53.2576 21.5097 53.3426 21.3722C53.5097 21.1031 53.5621 20.8268 53.4743 20.6129C53.0776 19.6439 52.6668 18.6792 52.2446 17.7215C52.1611 17.5317 51.9131 17.3957 51.6879 17.3687C51.6114 17.3602 51.5349 17.3517 51.4584 17.3461C51.2681 17.3366 51.0775 17.3385 50.8875 17.3517L51.1736 17.3418Z" fill="white"/>
<path d="M135.218 33.9664C135.04 34.7641 134.598 35.4786 133.965 35.9951C133.273 36.6968 132.449 37.254 131.54 37.6343C130.631 38.0147 129.655 38.2106 128.67 38.2108H128.209C126.141 38.0995 124.115 37.576 122.252 36.6709H122.238C121.806 36.4697 121.36 36.2685 120.928 36.0234C118.753 34.8018 116.758 33.2858 114.999 31.5184C112.717 29.3757 110.845 26.8352 109.474 24.0215C108.745 22.4795 108.258 20.8343 108.032 19.1439C107.696 17.3745 107.897 15.5453 108.608 13.8909C109.057 13.1445 109.604 12.4621 110.235 11.8622C110.518 11.5406 110.866 11.2811 111.254 11.1002C111.643 10.9193 112.065 10.8209 112.494 10.811C112.96 10.8633 113.411 11.0073 113.821 11.2346C114.232 11.4619 114.593 11.7681 114.884 12.1356C115.532 12.8397 116.322 13.5735 116.971 14.2507L117.863 15.129C118.388 15.5937 118.712 16.2425 118.77 16.9424C118.77 17.5841 118.533 18.2032 118.107 18.6835C117.831 19.0191 117.537 19.3406 117.229 19.6468L116.941 19.9485C116.774 20.1044 116.646 20.297 116.567 20.511C116.496 20.7192 116.468 20.9388 116.482 21.1584C116.71 21.769 117.069 22.3243 117.53 22.7847C118.252 23.7622 118.971 24.6122 119.705 25.533C121.032 27.074 122.608 28.3825 124.366 29.4048C124.546 29.5365 124.753 29.6244 124.972 29.6626C125.162 29.6768 125.355 29.6485 125.533 29.5776C126.036 29.2815 126.482 28.9019 126.856 28.4542C127.36 27.8387 128.082 27.4418 128.871 27.3464C129.631 27.3571 130.355 27.6677 130.887 28.2105C131.174 28.4542 131.49 28.7857 131.793 29.103L132.224 29.5479L132.67 29.98L133.434 30.7563C133.889 31.16 134.317 31.5921 134.715 32.0525C135.114 32.605 135.294 33.2893 135.218 33.9664ZM130.052 24.1079C129.767 24.1042 129.495 23.9893 129.293 23.7876C129.091 23.586 128.977 23.3135 128.973 23.0284C128.974 22.2135 128.815 21.4063 128.504 20.6531C128.193 19.9 127.736 19.2157 127.16 18.6394C126.583 18.0632 125.899 17.6064 125.146 17.2953C124.393 16.9841 123.586 16.8247 122.771 16.8262C122.484 16.8262 122.21 16.7125 122.007 16.51C121.805 16.3076 121.691 16.033 121.691 15.7467C121.691 15.4604 121.805 15.1858 122.007 14.9834C122.21 14.7809 122.484 14.6672 122.771 14.6672C123.869 14.6655 124.957 14.8806 125.972 15.3002C126.988 15.7198 127.91 16.3356 128.687 17.1124C129.463 17.8891 130.079 18.8115 130.499 19.8267C130.918 20.8419 131.134 21.9299 131.132 23.0284C131.132 23.1701 131.104 23.3105 131.05 23.4415C130.995 23.5724 130.916 23.6914 130.816 23.7917C130.715 23.8919 130.596 23.9714 130.465 24.0257C130.334 24.0799 130.194 24.1079 130.052 24.1079Z" fill="white"/>
<path d="M135.046 23.6032C134.761 23.5995 134.489 23.4848 134.287 23.2835C134.086 23.0821 133.97 22.81 133.966 22.5251C133.969 21.1366 133.697 19.7614 133.167 18.478C132.637 17.1945 131.86 16.0282 130.879 15.0457C129.898 14.0632 128.732 13.2837 127.45 12.752C126.167 12.2203 124.792 11.9467 123.404 11.9469C123.259 11.9521 123.114 11.9281 122.979 11.8763C122.843 11.8244 122.72 11.7458 122.615 11.6451C122.511 11.5444 122.428 11.4237 122.371 11.2902C122.314 11.1567 122.285 11.0131 122.285 10.8681C122.285 10.723 122.314 10.5795 122.371 10.446C122.428 10.3124 122.511 10.1917 122.615 10.0911C122.72 9.99036 122.843 9.91174 122.979 9.85989C123.114 9.80804 123.259 9.78403 123.404 9.78928C125.076 9.78928 126.731 10.1188 128.275 10.759C129.82 11.3992 131.223 12.3376 132.404 13.5204C133.586 14.7032 134.523 16.1073 135.161 17.6524C135.8 19.1975 136.127 20.8533 136.125 22.5251C136.125 22.6669 136.098 22.8073 136.043 22.9382C135.989 23.0692 135.909 23.1882 135.809 23.2884C135.709 23.3887 135.59 23.4682 135.459 23.5224C135.328 23.5767 135.188 23.6032 135.046 23.6032Z" fill="white"/>
<path d="M202.167 24.0002C202.167 16.1802 195.82 9.8335 188 9.8335C180.18 9.8335 173.833 16.1802 173.833 24.0002C173.833 30.8568 178.707 36.566 185.167 37.8835V28.2502H182.333V24.0002H185.167V20.4585C185.167 17.7243 187.391 15.5002 190.125 15.5002H193.667V19.7502H190.833C190.054 19.7502 189.417 20.3877 189.417 21.1668V24.0002H193.667V28.2502H189.417V38.096C196.571 37.3877 202.167 31.3527 202.167 24.0002Z" fill="white"/>
</svg>
