<svg width="35" height="32" viewBox="0 0 35 32" fill="none" xmlns="http://www.w3.org/2000/svg">
<path d="M27.7085 1.33325L20.4168 7.99992V22.6666L27.7085 16.6666V1.33325ZM1.4585 7.99992V27.5333C1.4585 27.8666 1.82308 28.1999 2.18766 28.1999C2.3335 28.1999 2.40641 28.1333 2.55225 28.1333C4.521 27.2666 7.36475 26.6666 9.47933 26.6666C12.3231 26.6666 15.3856 27.1999 17.5002 28.6666V7.99992C15.3856 6.53325 12.3231 5.99992 9.47933 5.99992C6.63558 5.99992 3.57308 6.53325 1.4585 7.99992ZM33.5418 25.9999V7.99992C32.6668 7.39992 31.7189 6.99992 30.6252 6.66659V24.6666C29.021 24.1999 27.271 23.9999 25.521 23.9999C23.0418 23.9999 19.4689 24.8666 17.5002 25.9999V28.6666C19.4689 27.5333 23.0418 26.6666 25.521 26.6666C27.9272 26.6666 30.4064 27.0666 32.4481 28.0666C32.5939 28.1333 32.6668 28.1333 32.8127 28.1333C33.1772 28.1333 33.5418 27.7999 33.5418 27.4666V25.9999Z" fill="#FF006B"/>
</svg>
