<svg width="17" height="19" viewBox="0 0 17 19" fill="none" xmlns="http://www.w3.org/2000/svg">
<path fill-rule="evenodd" clip-rule="evenodd" d="M1.2751 0.185547H16.1251C16.4963 0.185547 16.8001 0.523047 16.8001 0.935547V17.4355C16.8001 17.848 16.4963 18.1855 16.1251 18.1855H1.2751C0.903848 18.1855 0.600098 17.848 0.600098 17.4355V0.935547C0.600098 0.523047 0.903848 0.185547 1.2751 0.185547ZM2.99635 15.523H5.39259V6.93555H2.99635V15.523ZM4.21134 5.77304C3.43509 5.77304 2.82759 5.09804 2.82759 4.23554C2.82759 3.37304 3.43509 2.69804 4.21134 2.69804C4.98759 2.69804 5.59509 3.37304 5.59509 4.23554C5.59509 5.06054 4.98759 5.77304 4.21134 5.77304ZM12.0076 15.523H14.3701V10.798C14.3701 8.47304 13.9313 6.71054 11.5013 6.71054C10.3538 6.71054 9.54385 7.42304 9.2401 8.09804H9.20635V6.93554H6.91135V15.523H9.3076V11.2855C9.3076 10.1605 9.5101 9.07304 10.7588 9.07304C12.0076 9.07304 12.0076 10.348 12.0076 11.3605V15.523Z" fill="#7D818D"/>
</svg>
