<svg width="17" height="19" viewBox="0 0 17 19" fill="none" xmlns="http://www.w3.org/2000/svg">
<path fill-rule="evenodd" clip-rule="evenodd" d="M5.56024 0.239547C6.42424 0.196047 6.69998 0.185547 8.8998 0.185547C11.0996 0.185547 11.3754 0.196047 12.2394 0.239547C13.5563 0.306297 14.7122 0.664797 15.6404 1.69605C16.5688 2.72767 16.8911 4.01242 16.9512 5.47492C16.9904 6.43492 16.9998 6.7413 16.9998 9.18555C16.9998 11.6298 16.9904 11.9362 16.9512 12.8962C16.8911 14.3594 16.5685 15.6438 15.6404 16.675C14.7119 17.7067 13.5553 18.0648 12.2394 18.1315C11.3754 18.175 11.0996 18.1855 8.8998 18.1855C6.69998 18.1855 6.42424 18.175 5.56024 18.1315C4.24332 18.0648 3.08738 17.7063 2.15925 16.675C1.23079 15.6434 0.90848 14.3587 0.848405 12.8962C0.809255 11.9362 0.799805 11.6298 0.799805 9.18555C0.799805 6.7413 0.809255 6.43492 0.848405 5.47492C0.90848 4.01167 1.23113 2.7273 2.15925 1.69605C3.08772 0.664422 4.24399 0.306297 5.56024 0.239547ZM12.1729 1.85955C11.3187 1.81605 11.0625 1.80705 8.8998 1.80705C6.7371 1.80705 6.48094 1.81643 5.62673 1.85955C4.70502 1.90643 3.84945 2.11155 3.19133 2.8428C2.53321 3.57405 2.34859 4.52468 2.30641 5.5488C2.26726 6.49792 2.25916 6.78255 2.25916 9.18555C2.25916 11.5885 2.26759 11.8732 2.30641 12.8223C2.34859 13.8464 2.53321 14.797 3.19133 15.5283C3.84945 16.2595 4.70502 16.4647 5.62673 16.5115C6.4806 16.555 6.73677 16.564 8.8998 16.564C11.0628 16.564 11.319 16.5547 12.1729 16.5115C13.0946 16.4647 13.9502 16.2595 14.6083 15.5283C15.2664 14.797 15.451 13.8464 15.4932 12.8223C15.5324 11.8732 15.5405 11.5885 15.5405 9.18555C15.5405 6.78255 15.532 6.49792 15.4932 5.5488C15.451 4.52468 15.2664 3.57405 14.6083 2.8428C13.9502 2.11155 13.0946 1.90643 12.1729 1.85955Z" fill="#7D818D"/>
</svg>
