<svg width="35" height="35" viewBox="0 0 35 35" fill="none" xmlns="http://www.w3.org/2000/svg">
<g clip-path="url(#clip0_1_10991)">
<path d="M24.231 0.253086C18.4223 0.253086 13.7135 2.84982 13.7135 6.0577C13.7135 9.26558 18.4237 11.8637 24.231 11.8637C30.0396 11.8637 34.7485 9.26558 34.7485 6.0577C34.7485 2.84982 30.0383 0.253086 24.231 0.253086ZM34.7485 7.78212C34.7458 10.99 30.0396 13.5881 24.231 13.5881C18.4385 13.5881 13.7404 11.0183 13.7135 7.8252V10.0962C13.7135 11.4665 14.5912 12.7212 16.0289 13.7146C17.4827 14.1104 18.7777 14.6596 19.856 15.3542C21.1927 15.6935 22.6627 15.9008 24.231 15.9008C30.0396 15.9008 34.7485 13.304 34.7485 10.0962V7.78212ZM34.7485 11.8206C34.7485 15.0285 30.0396 17.6265 24.231 17.6265C23.5243 17.6265 22.8377 17.574 22.17 17.5C22.6969 18.2096 23.0563 19.0292 23.2214 19.8975C23.5566 19.9164 23.8877 19.9392 24.231 19.9392C30.0396 19.9392 34.7485 17.3425 34.7485 14.1346V11.8206ZM10.7695 15.0594C4.9608 15.0594 0.251953 17.6575 0.251953 20.8654C0.251953 24.0733 4.96215 26.6714 10.7695 26.6714C16.5781 26.6714 21.287 24.0733 21.287 20.8654C21.287 17.6575 16.5768 15.0594 10.7695 15.0594ZM34.7485 15.859C34.7458 19.0669 30.0396 21.665 24.231 21.665C23.8931 21.665 23.5512 21.6408 23.2214 21.6219C23.2066 21.7229 23.1985 21.8575 23.1796 21.9585C23.247 22.1617 23.3048 22.3623 23.3048 22.5912V23.9373C23.6104 23.9521 23.9173 23.9777 24.231 23.9777C30.0396 23.9777 34.7485 21.381 34.7485 18.1731V15.859ZM34.7485 19.8975C34.7458 23.1054 30.0396 25.7035 24.231 25.7035C23.8931 25.7035 23.5512 25.6792 23.2214 25.6604C23.2066 25.7614 23.1985 25.896 23.1796 25.9969C23.247 26.1989 23.3048 26.4008 23.3048 26.6296V27.9758C23.6104 27.9906 23.9173 28.0162 24.231 28.0162C30.0396 28.0162 34.7485 25.4194 34.7485 22.2115V19.8975ZM21.287 22.5898C21.2843 25.7977 16.5781 28.3958 10.7695 28.3958C4.97695 28.3958 0.278876 25.826 0.251953 22.6315V24.9039C0.251953 28.1117 4.95945 30.7098 10.7695 30.7098C16.5795 30.7098 21.287 28.1117 21.287 24.9039V22.5898ZM21.287 26.6283C21.2843 29.8362 16.5781 32.4342 10.7695 32.4342C4.97695 32.4342 0.278876 29.8644 0.251953 26.67V28.9423C0.251953 32.1502 4.95945 34.7483 10.7695 34.7483C16.5795 34.7483 21.287 32.1502 21.287 28.9423V26.6283Z" fill="#FF006B"/>
</g>
<defs>
<clipPath id="clip0_1_10991">
<rect width="35" height="35" fill="white"/>
</clipPath>
</defs>
</svg>
